# xmcd
# Copyright (C) 1995-1998 Ti Kan
#
# Track frame offsets:
#       150
#       18511
#       35293
#       53612
#       69665
#       85095
#
# Disc length: 1316 seconds
#
# Revision: 0
# Processed by: cddbd v1.5.2PL0 Copyright (c) Steve Scherf et al.
# Submitted via: CD-Import v1.0
#
DISCID=41052206
DTITLE=Roland Kaiser - Bääärenstark
DYEAR=13
DGENRE=
TTITLE0=Dankeschön
TTITLE1=Heiligenschein
TTITLE2=Windstärke 10
TTITLE3=La Vita É Bella
TTITLE4=Du Gehst Mir Unter Die Haut
TTITLE5=Ups, Was Hab Ich Gesagt
EXTD=
EXTT0=
EXTT1=
EXTT2=
EXTT3=
EXTT4=
EXTT5=
PLAYORDER=
